<svg width="60" height="60" viewBox="0 0 60 60" fill="none" xmlns="http://www.w3.org/2000/svg">
<rect width="60" height="60" rx="12" fill="#FEAB49" fill-opacity="0.2"/>
<path d="M40.6243 19.5981C40.44 19.6127 40.1862 19.6538 39.7355 19.7289L28.0021 21.6845C27.6657 21.7405 27.4863 21.7713 27.3585 21.8027L27.3455 21.8059L27.3445 21.8193C27.3345 21.9504 27.3337 22.1325 27.3337 22.4736V37.9997L27.3337 38.0045C27.331 40.9478 24.9442 43.333 22.0003 43.333C19.0548 43.333 16.667 40.9452 16.667 37.9997C16.667 35.0542 19.0548 32.6663 22.0003 32.6663C22.9718 32.6663 23.8825 32.9261 24.667 33.3799L24.667 22.4357C24.667 22.1475 24.6669 21.8624 24.6854 21.6182C24.7059 21.3465 24.7542 21.0307 24.9006 20.7044C25.1065 20.2454 25.4381 19.8539 25.857 19.5754C26.1549 19.3773 26.4584 19.2778 26.723 19.2128C26.9609 19.1545 27.2421 19.1076 27.5264 19.0603L39.3436 17.0908C39.7306 17.0262 40.1007 16.9645 40.4145 16.9397C40.7532 16.913 41.1665 16.9145 41.5955 17.0738C42.18 17.2909 42.6699 17.706 42.9801 18.2468C43.2078 18.6437 43.2773 19.0512 43.3066 19.3897C43.3337 19.7032 43.3337 20.0784 43.3337 20.4707L43.3337 35.333C43.3337 35.4072 43.3276 35.48 43.316 35.5509C43.2017 38.3954 40.8595 40.6663 37.987 40.6663C35.0415 40.6663 32.6537 38.2785 32.6537 35.333C32.6537 32.3875 35.0415 29.9997 37.987 29.9997C38.9639 29.9997 39.8795 30.2623 40.667 30.7209V20.518C40.667 20.0611 40.6658 19.804 40.6499 19.6198L40.6477 19.5964L40.6243 19.5981Z" fill="#E68A1D"/>
</svg>
