<svg width="60" height="60" viewBox="0 0 60 60" fill="none" xmlns="http://www.w3.org/2000/svg">
<rect width="60" height="60" rx="12" fill="#52BA69" fill-opacity="0.2"/>
<path fill-rule="evenodd" clip-rule="evenodd" d="M30.6095 15.6604C30.2087 15.5663 29.7915 15.5663 29.3907 15.6604C28.9266 15.7693 28.5218 16.0348 28.1996 16.246L16.8362 23.6323C16.5619 23.8093 16.2167 24.032 15.9538 24.3466C15.7264 24.6188 15.5555 24.9336 15.4512 25.2727C15.3307 25.6646 15.3321 26.0753 15.3332 26.4018V33.5974C15.3321 33.9239 15.3307 34.3346 15.4512 34.7265C15.5555 35.0655 15.7264 35.3804 15.9538 35.6526C16.2167 35.9672 16.5619 36.1899 16.8362 36.3669L28.1996 43.7532C28.5218 43.9644 28.9266 44.2299 29.3907 44.3388C29.7915 44.4329 30.2087 44.4329 30.6095 44.3388C31.0736 44.2299 31.4784 43.9644 31.8006 43.7532L43.164 36.3669C43.4383 36.1899 43.7835 35.9672 44.0464 35.6526C44.2738 35.3804 44.4447 35.0655 44.549 34.7265C44.6695 34.3346 44.6681 33.9239 44.667 33.5974V26.4018C44.6681 26.0753 44.6695 25.6646 44.549 25.2727C44.4447 24.9336 44.2738 24.6188 44.0464 24.3466C43.7835 24.032 43.4383 23.8093 43.164 23.6323L31.8006 16.246C31.4784 16.0348 31.0736 15.7693 30.6095 15.6604ZM18.0001 27.79L18.0057 33.9396L28.6667 40.876V34.7101L18.0001 27.79ZM31.3334 40.876L41.9949 33.9328L42.0001 27.79L31.3334 34.7101V40.876Z" fill="#52BA69"/>
</svg>
