<svg width="60.000000" height="60.000000" viewBox="0 0 60 60" fill="none" xmlns="http://www.w3.org/2000/svg" xmlns:xlink="http://www.w3.org/1999/xlink">
	<defs>
		<clipPath id="clip598_1374">
			<rect id="feature icon/edu" rx="12.000000" width="60.000000" height="60.000000" fill="white" fill-opacity="0"/>
		</clipPath>
	</defs>
	<rect id="feature icon/edu" rx="12.000000" width="60.000000" height="60.000000" fill="#0084FF" fill-opacity="0.200000"/>
	<g clip-path="url(#clip598_1374)">
		<rect id="edit" width="24.000000" height="24.000000" transform="translate(18.000000 18.000000)" fill="#FFFFFF" fill-opacity="0"/>
		<g opacity="0.000000"/>
		<path id="AB" d="M19.58 34.05L17.83 39L15.61 39L22.02 21.54L24.2 21.54L30.61 39L28.4 39L26.64 34.05L19.58 34.05ZM39.64 39L33.34 39L33.34 21.54L39.44 21.54C43.09 21.54 44.79 23.62 44.79 26.17C44.79 28.42 43.46 29.41 41.96 29.83L41.96 30C43.56 30.09 45.47 31.59 45.47 34.36C45.47 36.99 43.77 39 39.64 39ZM35.45 23.41L35.45 29.21L39.37 29.21C41.28 29.21 42.78 28.02 42.78 26.17C42.78 24.65 41.76 23.41 39.44 23.41L35.45 23.41ZM23.04 24.3L20.25 32.17L25.97 32.17L23.17 24.3L23.04 24.3ZM35.45 31.05L35.45 37.12L39.64 37.12C42.4 37.12 43.46 35.9 43.46 34.36C43.46 32.58 42.03 31.05 39.75 31.05L35.45 31.05Z" fill="#3E90F0" fill-opacity="1.000000" fill-rule="evenodd"/>
	</g>
</svg>

