<svg width="60" height="60" viewBox="0 0 60 60" fill="none" xmlns="http://www.w3.org/2000/svg">
<rect width="60" height="60" rx="12" fill="#0084FF" fill-opacity="0.2"/>
<path fill-rule="evenodd" clip-rule="evenodd" d="M23.9256 15.3337L23.8057 15.3334C23.3883 15.3317 22.8741 15.3296 22.421 15.4945C21.6803 15.7641 21.0968 16.3476 20.8272 17.0883C20.7207 17.381 20.6838 17.6992 20.6715 18.0003L18.6312 18.0003C18.3511 18.0003 18.0783 18.0003 17.8462 18.0161C17.5923 18.0334 17.2914 18.0741 16.9793 18.2033C16.3259 18.474 15.8068 18.9931 15.5361 19.6465C15.4069 19.9586 15.3662 20.2595 15.3489 20.5134C15.3331 20.7455 15.3331 21.0183 15.3331 21.2984L15.3331 22.1838C15.3325 23.2443 15.3321 24.0318 15.5149 24.714C16.008 26.5545 17.4456 27.9921 19.2861 28.4853C19.7935 28.6212 20.3592 28.6558 21.0521 28.6644C22.0759 32.1082 25.0337 34.7196 28.6663 35.2392V36.667H28.0737C24.7191 36.667 21.9997 39.3864 21.9997 42.7411C21.9997 43.8047 22.8619 44.667 23.9256 44.667H36.0737C37.1374 44.667 37.9997 43.8047 37.9997 42.7411C37.9997 39.3864 35.2802 36.667 31.9256 36.667H31.333V35.2392C34.9656 34.7196 37.9235 32.1082 38.9473 28.6644C39.6403 28.6558 40.206 28.6212 40.7134 28.4853C42.5539 27.9921 43.9915 26.5545 44.4846 24.714C44.6674 24.0318 44.667 23.2443 44.6664 22.1838L44.6663 21.2984C44.6664 21.0183 44.6664 20.7455 44.6506 20.5134C44.6332 20.2595 44.5926 19.9586 44.4634 19.6465C44.1927 18.9931 43.6736 18.474 43.0202 18.2033C42.7081 18.0741 42.4071 18.0334 42.1533 18.0161C41.9212 18.0003 41.6484 18.0003 41.3683 18.0003L39.3279 18.0003C39.3156 17.6992 39.2787 17.381 39.1722 17.0883C38.9026 16.3476 38.3191 15.7641 37.5784 15.4945C37.1253 15.3296 36.6111 15.3317 36.1937 15.3334L36.0738 15.3337H23.9256ZM20.6664 21.7337C20.6664 21.3603 20.6664 21.1736 20.5937 21.031C20.5298 20.9056 20.4278 20.8036 20.3024 20.7397C20.1598 20.667 19.9731 20.667 19.5997 20.667L18.9911 20.667C18.6388 20.667 18.4627 20.667 18.3239 20.735C18.2035 20.794 18.0999 20.8923 18.0347 21.0095C17.9596 21.1445 17.9507 21.315 17.9328 21.6561C17.8908 22.46 17.8951 23.2941 18.0907 24.0238C18.3372 24.9441 19.056 25.6629 19.9763 25.9095C20.1347 25.9519 20.323 25.9749 20.6664 25.9872V21.7337ZM39.333 21.738C39.333 21.3633 39.333 21.1759 39.4061 21.033C39.4703 20.9073 39.5728 20.8052 39.6987 20.7415C39.8419 20.6691 40.0293 20.6698 40.4041 20.6714L41.0017 20.6738C41.3524 20.6752 41.5278 20.676 41.666 20.7441C41.7859 20.8032 41.8889 20.9012 41.9538 21.0181C42.0286 21.1528 42.0377 21.3227 42.0558 21.6627C42.0986 22.4677 42.0979 23.3182 41.9088 24.0238C41.6622 24.9441 40.9434 25.6629 40.0232 25.9095C39.8648 25.9519 39.6764 25.9749 39.333 25.9872V21.738Z" fill="#3E90F0"/>
</svg>
