<svg width="48" height="48" viewBox="0 0 48 48" fill="none"
    xmlns="http://www.w3.org/2000/svg">
    <rect width="48" height="48" rx="10" fill="#10A37F" fill-opacity="0.05"/>
    <path d="M40.3425 20.7355H39V20.6663H24V27.333H33.4192C32.045 31.2138 28.3525 33.9997 24 33.9997C18.4775 33.9997 14 29.5222 14 23.9997C14 18.4772 18.4775 13.9997 24 13.9997C26.5492 13.9997 28.8684 14.9613 30.6342 16.5322L35.3484 11.818C32.3717 9.04384 28.39 7.33301 24 7.33301C14.7959 7.33301 7.33337 14.7955 7.33337 23.9997C7.33337 33.2038 14.7959 40.6663 24 40.6663C33.2042 40.6663 40.6667 33.2038 40.6667 23.9997C40.6667 22.8822 40.5517 21.7913 40.3425 20.7355Z" fill="#FFC107"/>
    <path d="M9.25476 16.2422L14.7306 20.258C16.2123 16.5897 19.8006 13.9997 23.9998 13.9997C26.5489 13.9997 28.8681 14.9613 30.6339 16.5322L35.3481 11.818C32.3714 9.04384 28.3898 7.33301 23.9998 7.33301C17.5981 7.33301 12.0464 10.9472 9.25476 16.2422Z" fill="#FF3D00"/>
    <path d="M24.0002 40.6672C28.3052 40.6672 32.2169 39.0197 35.1744 36.3406L30.0161 31.9756C28.2865 33.2909 26.1731 34.0023 24.0002 34.0006C19.6652 34.0006 15.9844 31.2364 14.5977 27.3789L9.16272 31.5664C11.9211 36.9639 17.5227 40.6672 24.0002 40.6672Z" fill="#4CAF50"/>
    <path d="M40.3425 20.7362H39V20.667H24V27.3337H33.4192C32.7618 29.1807 31.5778 30.7946 30.0133 31.9762L30.0158 31.9745L35.1742 36.3395C34.8092 36.6712 40.6667 32.3337 40.6667 24.0003C40.6667 22.8828 40.5517 21.792 40.3425 20.7362Z" fill="#1976D2"/>
</svg>
