<svg width="34" height="34" viewBox="0 0 34 34" fill="none" xmlns="http://www.w3.org/2000/svg">
<path d="M3.65464 26.931L3.62631 26.9593C3.24381 26.1235 3.00298 25.1743 2.90381 24.126C3.00298 25.1601 3.27214 26.0951 3.65464 26.931Z" fill="#AC6AFF"/>
<path d="M12.7501 14.7052C14.6122 14.7052 16.1218 13.1957 16.1218 11.3336C16.1218 9.47146 14.6122 7.96191 12.7501 7.96191C10.888 7.96191 9.37842 9.47146 9.37842 11.3336C9.37842 13.1957 10.888 14.7052 12.7501 14.7052Z" fill="#AC6AFF"/>
<path d="M22.9358 2.83301H11.0641C5.90742 2.83301 2.83325 5.90717 2.83325 11.0638V22.9355C2.83325 24.4797 3.10242 25.8255 3.62659 26.9588C4.84492 29.6505 7.45159 31.1663 11.0641 31.1663H22.9358C28.0924 31.1663 31.1666 28.0922 31.1666 22.9355V19.6913V11.0638C31.1666 5.90717 28.0924 2.83301 22.9358 2.83301ZM28.8574 17.708C27.7524 16.7588 25.9674 16.7588 24.8624 17.708L18.9691 22.7655C17.8641 23.7147 16.0791 23.7147 14.9741 22.7655L14.4924 22.3688C13.4866 21.4905 11.8858 21.4055 10.7524 22.1705L5.45409 25.7263C5.14242 24.933 4.95825 24.0122 4.95825 22.9355V11.0638C4.95825 7.06884 7.06909 4.95801 11.0641 4.95801H22.9358C26.9308 4.95801 29.0416 7.06884 29.0416 11.0638V17.8638L28.8574 17.708Z" fill="#AC6AFF"/>
</svg>
