<svg width="42" height="42" viewBox="0 0 42 42" fill="none"
    xmlns="http://www.w3.org/2000/svg">
    <path fill-rule="evenodd" clip-rule="evenodd" d="M16.4331 4.36507C13.3153 5.46754 11.3052 7.77902 10.7011 10.956C10.3908 12.5874 10.4508 21.4127 10.7828 22.98C10.9345 23.696 11.0291 24.3133 10.9929 24.3516C10.957 24.3902 10.4581 24.1671 9.8847 23.8556C5.78126 21.6286 5.02612 16.7437 8.29169 13.5515C9.37519 12.4925 9.44227 12.3691 9.57603 11.1895L9.71721 9.94489L8.69495 10.4614C5.05484 12.3008 3.18426 16.6568 4.34067 20.6013C4.7807 22.1023 6.08311 24.0047 7.24534 24.8438C9.01289 26.1204 16.402 30.2425 17.7132 30.6836L19.02 31.1233L17.7217 31.8445C15.2691 33.2075 13.6349 33.294 11.3574 32.1818C9.43563 31.2435 8.1507 29.4676 7.94323 27.4635C7.88178 26.87 7.76691 26.3845 7.68778 26.3845C7.60864 26.3845 7.13589 26.074 6.63721 25.694L5.73024 25.0036L5.61135 25.8698C5.34062 27.8387 6.26486 30.644 7.73577 32.3193C8.6841 33.3993 10.4926 34.4951 11.9967 34.9011C13.6401 35.3447 15.8607 35.2184 17.2601 34.6016C19.3024 33.7018 26.4743 29.4453 27.478 28.5375C28.0564 28.0144 28.5981 27.5862 28.6818 27.5862C29.0177 27.5862 28.5624 31.0798 28.0934 32.1009C26.77 34.9835 23.3259 36.4511 20.2875 35.4278L19.0267 35.0031L17.8496 35.48L16.6723 35.9571L17.5349 36.5802C18.6959 37.4189 20.6661 38 22.3479 38C26.0708 38 29.3347 35.6762 30.5133 32.186C30.8401 31.2187 30.8833 30.3891 30.8833 25.0829C30.8833 20.7615 30.8127 18.883 30.6313 18.3915C30.4929 18.0156 30.4191 17.6688 30.4672 17.6207C30.6379 17.4503 32.6408 18.6697 33.4052 19.4095C34.7586 20.7192 35.0999 21.5996 35.0992 23.7811C35.099 25.4613 35.0354 25.8038 34.5559 26.7124C34.257 27.2784 33.5683 28.1345 33.0254 28.6149C32.0918 29.4415 32.0309 29.5567 31.9018 30.7493L31.7652 32.0098L32.8069 31.4833C35.4064 30.1698 37.0899 27.6924 37.496 24.5822C37.7823 22.3911 36.7054 19.4249 35.0403 17.8182C33.8336 16.6532 25.6839 11.9151 23.7941 11.2795L22.479 10.8371L23.769 10.1193C24.4784 9.7246 25.4658 9.29282 25.9628 9.16005C27.7353 8.68622 30.023 9.33407 31.6699 10.776C32.6226 11.6101 33.5946 13.5921 33.5946 14.701C33.5946 15.1791 33.6719 15.5702 33.7665 15.5702C33.8612 15.5702 34.3484 15.8822 34.8494 16.2637L35.7604 16.9574L35.8931 16.0738C36.0634 14.9413 35.7002 12.9467 35.0886 11.6576C33.6024 8.5248 30.1844 6.54898 26.7057 6.81133C25.8965 6.8722 24.8787 7.06827 24.4438 7.24651C22.6956 7.96405 15.001 12.5179 13.9835 13.4373L12.9087 14.4088L12.9107 12.6363C12.9123 11.1935 13.0006 10.6777 13.3862 9.86258C14.7575 6.96313 18.2147 5.49898 21.2606 6.52795L22.4826 6.94069L23.6379 6.47267L24.793 6.00445L24.1225 5.49458C22.8336 4.51427 21.5787 4.11194 19.5362 4.02442C17.9629 3.95693 17.4188 4.01661 16.4331 4.36507ZM23.8592 14.1413C25.6304 14.9678 26.6387 15.9579 27.5203 17.7369C28.213 19.1345 28.2725 19.3905 28.2725 20.9774C28.2725 22.5644 28.213 22.8202 27.5203 24.2178C26.6283 26.0178 25.6303 26.9867 23.7785 27.8515C22.6179 28.3933 22.2306 28.4725 20.7412 28.4725C19.2476 28.4725 18.8658 28.3938 17.6883 27.8444C15.9694 27.0416 14.6597 25.7356 13.8548 24.0216C13.3037 22.8475 13.2248 22.4667 13.2248 20.9774C13.2248 19.488 13.3037 19.1073 13.8548 17.9331C15.6842 14.0373 20.0722 12.3741 23.8592 14.1413ZM19.4474 17.06C17.6443 17.7246 16.6343 19.1309 16.6343 20.9774C16.6343 24.2078 19.9875 26.1193 22.848 24.5193C24.9447 23.3465 25.525 20.3784 24.0381 18.4342C23.0404 17.1297 20.9533 16.505 19.4474 17.06Z" fill="url(#paint0_linear_260_6130)"/>
    <defs>
        <linearGradient id="paint0_linear_260_6130" x1="4" y1="21" x2="38" y2="21" gradientUnits="userSpaceOnUse">
            <stop stop-color="#89F8E7"/>
            <stop offset="0.191783" stop-color="#8AEFEA"/>
            <stop offset="0.432333" stop-color="#8DCBF1"/>
            <stop offset="0.600774" stop-color="#90A8F9"/>
            <stop offset="0.787903" stop-color="#9397FB"/>
            <stop offset="1" stop-color="#CF7FEF"/>
        </linearGradient>
    </defs>
</svg>
