<svg width="60" height="60" viewBox="0 0 60 60" fill="none" xmlns="http://www.w3.org/2000/svg">
<rect width="60" height="60" rx="12" fill="#9068D0" fill-opacity="0.2"/>
<path fill-rule="evenodd" clip-rule="evenodd" d="M44.2765 17.0575C44.7972 17.5782 44.7972 18.4224 44.2765 18.9431L38.9431 24.2765C38.4224 24.7972 37.5782 24.7972 37.0575 24.2765L34.3909 21.6098C33.8702 21.0891 33.8702 20.2449 34.3909 19.7242C34.9116 19.2035 35.7558 19.2035 36.2765 19.7242L38.0003 21.448L42.3909 17.0575C42.9116 16.5368 43.7558 16.5368 44.2765 17.0575Z" fill="#8E55EA"/>
<path fill-rule="evenodd" clip-rule="evenodd" d="M21.3337 25.3337C21.3337 23.1245 23.1245 21.3337 25.3337 21.3337C27.5428 21.3337 29.3337 23.1245 29.3337 25.3337C29.3337 27.5428 27.5428 29.3337 25.3337 29.3337C23.1245 29.3337 21.3337 27.5428 21.3337 25.3337Z" fill="#8E55EA"/>
<path fill-rule="evenodd" clip-rule="evenodd" d="M30.667 16.667H24.3453C23.272 16.667 22.3861 16.667 21.6646 16.7259C20.9151 16.7872 20.2262 16.9186 19.579 17.2483C18.5755 17.7596 17.7596 18.5755 17.2483 19.579C16.9186 20.2262 16.7872 20.9151 16.7259 21.6646C16.667 22.3861 16.667 23.272 16.667 24.3452V35.6554C16.667 36.7287 16.667 37.6145 16.7259 38.3361C16.7872 39.0856 16.9186 39.7745 17.2483 40.4216C17.7596 41.4251 18.5755 42.241 19.579 42.7524C20.2262 43.0821 20.9151 43.2135 21.6646 43.2747C21.8984 43.2938 22.1495 43.3068 22.4186 43.3155C22.6977 43.334 23.0315 43.334 23.3756 43.3339C27.806 43.3339 32.2365 43.3337 36.667 43.3337C36.729 43.3337 36.7902 43.3337 36.8504 43.3337C37.9109 43.3343 38.6985 43.3347 39.3807 43.1519C41.2212 42.6588 42.6588 41.2212 43.1519 39.3807C43.3857 38.5084 43.334 37.5743 43.3337 36.6796C43.336 36.4272 43.3338 36.1747 43.3338 35.9223C43.3345 35.2971 43.3351 34.7462 43.1901 34.2199C43.0628 33.7579 42.8536 33.3226 42.5723 32.9346C42.2519 32.4926 41.8214 32.1489 41.3327 31.7588L37.558 28.7392C37.3315 28.5579 37.1076 28.3787 36.9042 28.2399C36.678 28.0855 36.3996 27.9251 36.0512 27.8358C35.5615 27.7103 35.0461 27.7265 34.5652 27.8827C34.2231 27.9938 33.9554 28.1714 33.7395 28.3397C33.5452 28.4911 33.333 28.6841 33.1184 28.8792L21.7743 39.1921C21.4896 39.4508 21.2145 39.7008 21.0122 39.9197C20.9311 40.0075 20.8079 40.144 20.6927 40.3244C20.2354 40.0671 19.8633 39.68 19.6243 39.211C19.5181 39.0024 19.4315 38.7035 19.3837 38.1189C19.3347 37.5188 19.3337 36.7424 19.3337 35.6003V24.4003C19.3337 23.2582 19.3347 22.4818 19.3837 21.8817C19.4315 21.2972 19.5181 20.9982 19.6243 20.7897C19.88 20.2879 20.2879 19.88 20.7897 19.6243C20.9982 19.5181 21.2972 19.4315 21.8817 19.3837C22.4818 19.3347 23.2582 19.3337 24.4003 19.3337H30.667C31.4034 19.3337 32.0003 18.7367 32.0003 18.0003C32.0003 17.2639 31.4034 16.667 30.667 16.667Z" fill="#8E55EA"/>
</svg>
