<svg width="208" height="214" viewBox="0 0 208 214" fill="none"
    xmlns="http://www.w3.org/2000/svg">
    <path d="M100.557 2.82488C102.105 0.205574 105.895 0.205573 107.443 2.82488L119.964 24.0055C121.132 25.9806 123.718 26.5708 125.627 25.298L146.098 11.6474C148.629 9.95936 152.044 11.6037 152.302 14.6355L154.393 39.1512C154.588 41.4372 156.662 43.0911 158.934 42.7725L183.3 39.3558C186.314 38.9332 188.677 41.8963 187.594 44.74L178.841 67.7351C178.025 69.8793 179.176 72.2693 181.361 72.9681L204.797 80.4618C207.695 81.3886 208.539 85.0835 206.329 87.1759L188.466 104.096C186.8 105.674 186.8 108.326 188.466 109.904L206.329 126.824C208.539 128.917 207.695 132.611 204.797 133.538L181.361 141.032C179.176 141.731 178.025 144.121 178.841 146.265L187.594 169.26C188.677 172.104 186.314 175.067 183.3 174.644L158.934 171.228C156.662 170.909 154.588 172.563 154.393 174.849L152.302 199.365C152.044 202.396 148.629 204.041 146.098 202.353L125.627 188.702C123.718 187.429 121.132 188.019 119.964 189.994L107.443 211.175C105.895 213.794 102.105 213.794 100.557 211.175L88.0358 189.994C86.8683 188.019 84.2822 187.429 82.3733 188.702L61.9025 202.353C59.3709 204.041 55.9563 202.396 55.6978 199.365L53.6068 174.849C53.4118 172.563 51.3379 170.909 49.0658 171.228L24.6995 174.644C21.6862 175.067 19.3233 172.104 20.4057 169.26L29.1588 146.265C29.975 144.121 28.8241 141.731 26.6387 141.032L3.20298 133.538C0.3048 132.611 -0.538539 128.917 1.67055 126.824L19.534 109.904C21.1997 108.326 21.1997 105.674 19.534 104.096L1.67055 87.1759C-0.538539 85.0835 0.304797 81.3886 3.20298 80.4618L26.6387 72.9681C28.8241 72.2693 29.975 69.8793 29.1588 67.7351L20.4057 44.74C19.3233 41.8963 21.6862 38.9332 24.6995 39.3558L49.0658 42.7725C51.3379 43.0911 53.4118 41.4372 53.6068 39.1512L55.6978 14.6355C55.9563 11.6037 59.3709 9.95935 61.9025 11.6474L82.3733 25.298C84.2822 26.5708 86.8683 25.9806 88.0358 24.0055L100.557 2.82488Z" fill="white"/>
</svg>
