<svg width="60" height="60" viewBox="0 0 60 60" fill="none" xmlns="http://www.w3.org/2000/svg">
<rect width="60" height="60" rx="12" fill="#D84C10" fill-opacity="0.2"/>
<path fill-rule="evenodd" clip-rule="evenodd" d="M29.9997 15.333C21.8995 15.333 15.333 21.8995 15.333 29.9997C15.333 38.0998 21.8995 44.6663 29.9997 44.6663C38.0998 44.6663 44.6663 38.0998 44.6663 29.9997C44.6663 21.8995 38.0998 15.333 29.9997 15.333ZM26.7993 24.8211C26.6663 24.9988 26.6663 25.3169 26.6663 25.9533V34.0458C26.6663 34.6821 26.6663 35.0003 26.7993 35.178C26.9152 35.3328 27.0926 35.4296 27.2855 35.4434C27.5069 35.4592 27.7745 35.2872 28.3098 34.943L34.6039 30.8968C35.0685 30.5982 35.3007 30.4489 35.3809 30.259C35.451 30.0931 35.451 29.906 35.3809 29.7401C35.3007 29.5502 35.0685 29.4009 34.6039 29.1023L28.3098 25.0561C27.7745 24.7119 27.5069 24.5399 27.2855 24.5557C27.0926 24.5695 26.9152 24.6663 26.7993 24.8211Z" fill="#D84C10"/>
</svg>
