<svg width="28" height="28" viewBox="0 0 28 28" fill="none" xmlns="http://www.w3.org/2000/svg">
<path d="M18.8885 2.33398H9.11183C4.86516 2.33398 2.3335 4.86565 2.3335 9.11232V18.8773C2.3335 23.1357 4.86516 25.6673 9.11183 25.6673H18.8768C23.1235 25.6673 25.6552 23.1357 25.6552 18.889V9.11232C25.6668 4.86565 23.1352 2.33398 18.8885 2.33398ZM17.1035 16.019L15.6102 16.8823L14.1168 17.7457C12.1918 18.854 10.6168 17.944 10.6168 15.7273V14.0007V12.274C10.6168 10.0457 12.1918 9.14732 14.1168 10.2557L15.6102 11.119L17.1035 11.9823C19.0285 13.0907 19.0285 14.9107 17.1035 16.019Z" fill="#AC6AFF"/>
</svg>
